<?xml version="1.0" encoding="UTF-8"?>
<svg version="1.1" xmlns="http://www.w3.org/2000/svg" width="640" height="640" viewBox="210 280 620 500">
<path d="M0 0 C9.01111374 1.12638922 9.01111374 1.12638922 12.8828125 2.05078125 C13.73270752 2.25251953 14.58260254 2.45425781 15.45825195 2.66210938 C16.33827881 2.87673828 17.21830566 3.09136719 18.125 3.3125 C19.05078857 3.53615234 19.97657715 3.75980469 20.93041992 3.99023438 C28.34986091 5.80171079 35.6864331 7.7964986 43 10 C44.69576172 10.48146484 44.69576172 10.48146484 46.42578125 10.97265625 C74.78844728 19.32871097 103.87462905 31.2851107 129 47 C129.33 47.66 129.66 48.32 130 49 C128.90042969 49.56847656 127.80085938 50.13695312 126.66796875 50.72265625 C125.17401129 51.50170759 123.68055577 52.28172196 122.1875 53.0625 C121.41301514 53.46573486 120.63853027 53.86896973 119.84057617 54.28442383 C114.38227588 57.16423191 109.35638746 60.30116018 104.39453125 63.98046875 C102 65 102 65 99.28515625 64.4609375 C95.89367278 62.95271536 92.5523699 61.37378775 89.22680664 59.72583008 C80.66169238 55.4846639 72.01236447 51.6685149 63.0625 48.3125 C62.18480957 47.98113037 61.30711914 47.64976074 60.40283203 47.30834961 C50.04443908 43.50301868 39.53462986 40.35192768 29 37 C29 115.21 29 193.42 29 274 C31.64 274.33 34.28 274.66 37 275 C39.14114595 275.56722482 41.26841518 276.19049259 43.375 276.875 C47.8077962 278.30950851 47.8077962 278.30950851 52.26806641 279.65454102 C58.55428992 281.46942062 64.5795625 283.68973294 70.625 286.1875 C71.5843042 286.58259766 72.5436084 286.97769531 73.53198242 287.38476562 C81.22057936 290.59342807 88.68589027 294.11039023 96.05810547 297.98632812 C98.07181324 299.03748662 100.09879972 300.05903904 102.12890625 301.078125 C117.87159505 309.07213262 132.22172218 318.99587207 146 330 C146.95003906 330.75667969 147.90007812 331.51335937 148.87890625 332.29296875 C150.54882779 333.62744753 152.21600683 334.96537482 153.87890625 336.30859375 C155.89126308 337.91329082 157.93777984 339.46027725 160 341 C160.22426005 335.22022427 160.38660686 329.44303502 160.49438477 323.65991211 C160.53935391 321.69754882 160.60055519 319.73548208 160.67895508 317.77416992 C161.50411208 304.35231624 161.50411208 304.35231624 155.90234375 292.60546875 C154.30865814 291.0283824 152.67658262 289.48865909 151 288 C149.80310159 286.70917214 148.61468348 285.41039458 147.4375 284.1015625 C121.22077924 257.19045904 87.75452741 239.72635822 52 229 C52 219.1 52 209.2 52 199 C88.64864409 208.16216102 122.27423024 223.12823367 151 248 C151.81597656 248.70511719 152.63195312 249.41023437 153.47265625 250.13671875 C163.85048638 259.29749749 173.60323804 268.96868353 182 280 C182.96298634 281.11912639 182.96298634 281.11912639 183.94542694 282.2608614 C189.77135048 289.43910112 191.14259685 294.50476296 190.90820312 303.6315918 C190.90937134 304.84264084 190.91053955 306.05368988 190.91174316 307.30143738 C190.90716031 310.58692712 190.86736209 313.86960489 190.8111515 317.15454078 C190.76075959 320.60036213 190.75641208 324.04625288 190.74694824 327.49238586 C190.72219346 334.00199646 190.65669827 340.51051787 190.57615232 347.01965123 C190.48638497 354.43678105 190.44266055 361.85396598 190.40258884 369.27150476 C190.31921875 384.51496485 190.17872552 399.75734136 190 415 C189.34 415 188.68 415 188 415 C186.46374071 413.15771296 185.03977754 411.30771416 183.625 409.375 C174.67070784 397.51674412 164.9129413 386.72083993 154.4375 376.1875 C153.95471588 375.69944885 153.47193176 375.21139771 152.97451782 374.70855713 C146.33342422 368.01151628 139.42462755 361.82249 132 356 C131.31059326 355.45657959 130.62118652 354.91315918 129.91088867 354.35327148 C94.51482074 326.77721184 54.07525546 307.79386107 10 299 C6.7 298.34 3.4 297.68 0 297 C0 198.99 0 100.98 0 0 Z " fill="#FFFFFF" transform="translate(312,297)"/>
<path d="M0 0 C0 98.01 0 196.02 0 297 C-9.24 298.98 -18.48 300.96 -28 303 C-65.15402603 313.18739423 -98.71231496 330.23983329 -129 354 C-129.8971875 354.70382812 -130.794375 355.40765625 -131.71875 356.1328125 C-147.23298773 368.57095137 -162.45655922 382.60104725 -174.796875 398.21484375 C-177.46912373 401.5930589 -180.22452777 404.89397541 -183 408.1875 C-183.48178711 408.76516113 -183.96357422 409.34282227 -184.45996094 409.93798828 C-185.61734294 411.31138706 -186.80571781 412.65856519 -188 414 C-188.33 414 -188.66 414 -189 414 C-189.2815522 398.10913853 -189.4925239 382.21896101 -189.62174606 366.32621765 C-189.68336864 358.94514097 -189.76722089 351.56562251 -189.90527344 344.18554688 C-190.02568287 337.74552048 -190.10248323 331.30662326 -190.12906194 324.86550236 C-190.14457761 321.46090244 -190.18045578 318.05952972 -190.26876068 314.65597534 C-190.61065928 299.82939528 -190.73482541 288.40392853 -180.18804932 277.16894531 C-179.40441891 276.39125542 -179.40441891 276.39125542 -178.60495758 275.59785461 C-176.37476691 273.37753396 -174.31813435 271.01577478 -172.23778915 268.6559906 C-169.89501515 266.03674078 -167.44604215 263.52231659 -165 261 C-164.21882812 260.17886719 -163.43765625 259.35773438 -162.6328125 258.51171875 C-138.04777312 233.1830038 -105.0445968 215.28507035 -71.8125 204.3125 C-71.16352753 204.0980423 -70.51455505 203.88358459 -69.84591675 203.66262817 C-63.87402047 201.70603425 -58.2145031 200.03575052 -52 199 C-52 208.9 -52 218.8 -52 229 C-57.7234375 230.8871875 -57.7234375 230.8871875 -63.5625 232.8125 C-92.97395691 242.8527196 -118.79343618 257.91112852 -141.6875 278.875 C-142.54166504 279.6491626 -142.54166504 279.6491626 -143.41308594 280.43896484 C-144.60646207 281.55762819 -145.77220468 282.70623296 -146.91430664 283.87719727 C-148.51117866 285.50248138 -150.1815837 287.05580447 -151.88061523 288.57397461 C-157.60839083 294.04989702 -160.56351277 298.63355475 -161.03834534 306.68017578 C-161.09936505 311.40353267 -160.92000489 316.09580127 -160.6875 320.8125 C-160.63220879 322.7765542 -160.58203889 324.74075957 -160.53710938 326.70507812 C-160.41702905 331.47384688 -160.22792661 336.23521813 -160 341 C-159.0574939 340.24360229 -159.0574939 340.24360229 -158.09594727 339.47192383 C-139.62841088 324.67110749 -120.93183056 311.13190726 -100 300 C-99.18966309 299.566875 -98.37932617 299.13375 -97.54443359 298.6875 C-76.53622536 287.55690463 -53.42060055 277.68412011 -30 273 C-29.67 195.12 -29.34 117.24 -29 37 C-44.13041395 41.441445 -44.13041395 41.441445 -59 46.5625 C-60.12994385 46.97943115 -61.2598877 47.3963623 -62.42407227 47.82592773 C-73.85568949 52.14958167 -84.78876723 57.41458579 -95.67944336 62.94360352 C-97.82990082 63.92256505 -99.66252531 64.66598749 -102 65 C-104.70703125 63.62890625 -104.70703125 63.62890625 -107.8125 61.5625 C-112.85938729 58.2855102 -117.98606856 55.30107255 -123.3125 52.5 C-123.97677002 52.1501001 -124.64104004 51.8002002 -125.32543945 51.43969727 C-126.88181581 50.62300525 -128.44062887 49.81095926 -130 49 C-106.94074001 24.14999163 -52.30738612 11.49621823 -21 4 C-19.31361297 3.58409941 -17.62740917 3.16745498 -15.94140625 2.75 C-14.39876004 2.37367535 -12.85580897 1.99859737 -11.3125 1.625 C-10.62317383 1.45693848 -9.93384766 1.28887695 -9.22363281 1.11572266 C-6.01088208 0.36107704 -3.33153826 0 0 0 Z " fill="#FFFFFF" transform="translate(712,297)"/>
<path d="M0 0 C4.1651919 3.70923894 8.18560305 7.54410577 12.078125 11.5390625 C12.61179687 12.01601563 13.14546875 12.49296875 13.6953125 12.984375 C32.38891558 30.28177536 45.01919086 56.05852052 51.078125 80.5390625 C51.078125 81.8590625 51.078125 83.1790625 51.078125 84.5390625 C48.68524796 85.3818368 46.28941481 86.21343252 43.890625 87.0390625 C42.88032227 87.39677734 42.88032227 87.39677734 41.84960938 87.76171875 C38.14608033 89.02633842 34.99871964 89.84357471 31.078125 89.5390625 C30.8447644 88.70882568 30.8447644 88.70882568 30.60668945 87.86181641 C26.50423978 73.24490338 26.50423978 73.24490338 20.078125 59.5390625 C12.07365424 63.33750655 4.52084987 67.75372966 -3.046875 72.3515625 C-4.20551933 73.05177963 -5.36437234 73.75165156 -6.5234375 74.45117188 C-9.3249777 76.14376908 -12.12438299 77.83978592 -14.921875 79.5390625 C-13.99405812 84.48424173 -12.42005174 89.10775988 -10.73828125 93.8359375 C-9.26568376 98.10559886 -8.42904287 102.07829052 -7.921875 106.5390625 C-10.87637413 108.2125962 -13.8360768 109.87670235 -16.796875 111.5390625 C-18.05951172 112.25449219 -18.05951172 112.25449219 -19.34765625 112.984375 C-20.55615234 113.66113281 -20.55615234 113.66113281 -21.7890625 114.3515625 C-22.90450439 114.97998047 -22.90450439 114.97998047 -24.04248047 115.62109375 C-25.921875 116.5390625 -25.921875 116.5390625 -27.921875 116.5390625 C-28.09203125 115.48847656 -28.2621875 114.43789063 -28.4375 113.35546875 C-29.76631022 105.53346043 -31.23735715 98.65399353 -34.921875 91.5390625 C-38.78594855 92.97785566 -42.25012999 94.7746794 -45.81640625 96.83984375 C-46.93724609 97.48759766 -48.05808594 98.13535156 -49.21289062 98.80273438 C-49.79208252 99.13974365 -50.37127441 99.47675293 -50.96801758 99.82397461 C-52.71683655 100.84135942 -54.46848246 101.85372181 -56.22070312 102.86523438 C-62.18864285 106.32287739 -68.10170681 109.83792233 -73.921875 113.5390625 C-73.76178955 114.15765137 -73.6017041 114.77624023 -73.43676758 115.41357422 C-71.61670159 122.92684805 -73.08323373 129.90047112 -76.921875 136.5390625 C-81.25297081 141.64203677 -86.80913288 144.97652938 -93.4921875 145.890625 C-100.41587163 146.25705954 -105.5029889 144.93730403 -110.921875 140.5390625 C-117.29462496 133.64307623 -118.55745993 127.66551068 -118.32421875 118.3515625 C-117.73801464 112.79685168 -115.89151415 109.40820446 -111.921875 105.5390625 C-105.07290424 100.10712017 -98.58579726 98.68912076 -89.921875 99.5390625 C-87.90717402 100.50910371 -85.90265453 101.50151132 -83.921875 102.5390625 C-79.67208284 101.33995102 -77.76337956 97.88919793 -75.421875 94.4140625 C-74.54889782 93.15224396 -73.67380461 91.89188741 -72.796875 90.6328125 C-72.33539062 89.96894531 -71.87390625 89.30507813 -71.3984375 88.62109375 C-68.32736905 84.29072475 -65.08430513 80.08549512 -61.85742188 75.87060547 C-61.13135742 74.91371826 -61.13135742 74.91371826 -60.390625 73.9375 C-59.96201172 73.37724121 -59.53339844 72.81698242 -59.09179688 72.23974609 C-57.83503668 70.412828 -56.8691824 68.5414253 -55.921875 66.5390625 C-64.42244772 60.28970078 -72.87813486 57.2487449 -82.921875 54.5390625 C-83.57800781 54.33667969 -84.23414063 54.13429688 -84.91015625 53.92578125 C-102.32718161 50.57765404 -120.46355988 55.83912628 -134.921875 65.5390625 C-138.52934329 68.30994632 -141.75181043 71.28190825 -144.921875 74.5390625 C-145.54320312 75.12816406 -146.16453125 75.71726562 -146.8046875 76.32421875 C-157.47286077 87.20766906 -161.36079398 101.98133879 -163.921875 116.5390625 C-168.54863157 115.1468166 -172.56873731 113.24385266 -176.796875 110.9140625 C-177.94929688 110.28242188 -179.10171875 109.65078125 -180.2890625 109 C-181.15789062 108.51789063 -182.02671875 108.03578125 -182.921875 107.5390625 C-183.18035272 101.6073302 -182.52607176 97.0345511 -180.484375 91.4765625 C-180.21778076 90.7441333 -179.95118652 90.0117041 -179.67651367 89.25708008 C-170.90016187 66.25108526 -153.40602441 48.78627224 -131.14257812 38.51416016 C-111.83855504 30.03787737 -86.34011323 28.90219094 -66.3828125 36.01953125 C-65.01413595 36.57223787 -63.65195052 37.14130149 -62.296875 37.7265625 C-61.57830322 38.02828369 -60.85973145 38.33000488 -60.11938477 38.64086914 C-54.19088495 41.22262443 -48.95825946 44.46788194 -43.921875 48.5390625 C-39.77795321 47.02962493 -37.91673554 44.1175273 -35.546875 40.6015625 C-34.67878658 39.34907819 -33.80888491 38.09784935 -32.9375 36.84765625 C-32.2269043 35.82454346 -32.2269043 35.82454346 -31.50195312 34.78076172 C-28.50234524 30.52513755 -25.39360378 26.34924546 -22.296875 22.1640625 C-21.66861816 21.31336182 -21.04036133 20.46266113 -20.39306641 19.58618164 C-18.90363023 17.56976187 -17.41324103 15.5540551 -15.921875 13.5390625 C-16.52604248 13.24410889 -17.13020996 12.94915527 -17.75268555 12.64526367 C-20.53643352 11.22566186 -23.10276352 9.53645589 -25.734375 7.8515625 C-32.8391211 3.40000299 -40.25153353 -0.10141364 -47.921875 -3.4609375 C-49.26572266 -4.06421875 -49.26572266 -4.06421875 -50.63671875 -4.6796875 C-57.2073506 -7.49110858 -63.93328523 -9.0413802 -70.921875 -10.4609375 C-71.80875 -10.66847656 -72.695625 -10.87601562 -73.609375 -11.08984375 C-105.63425225 -17.74617725 -140.68918611 -8.79869832 -167.74609375 8.72021484 C-171.2965439 11.14201082 -174.63209721 13.77721339 -177.921875 16.5390625 C-178.77910156 17.25707031 -179.63632812 17.97507812 -180.51953125 18.71484375 C-200.51541461 36.11466189 -213.95487114 58.01744732 -220.921875 83.5390625 C-221.57733475 85.54276331 -222.24107859 87.543828 -222.921875 89.5390625 C-229.87210764 88.89252923 -236.30364803 86.67879002 -242.921875 84.5390625 C-237.13531226 56.08846234 -223.76943691 32.54055243 -203.921875 11.5390625 C-203.12523437 10.66636719 -202.32859375 9.79367187 -201.5078125 8.89453125 C-149.3918447 -46.13426255 -56.96587773 -47.97928204 0 0 Z " fill="#FFFFFF" transform="translate(607.921875,389.4609375)"/>
<path d="M0 0 C16 1 16 1 28 4 C28 93.76 28 183.52 28 276 C31.3 276 34.6 276 38 276 C43.72752566 276.66830903 49.35782222 277.82504217 55 279 C55.8854248 279.18272461 56.77084961 279.36544922 57.68310547 279.55371094 C105.68270018 289.7018634 148.96895533 309.57360093 186 342 C186.86109375 342.74894531 187.7221875 343.49789063 188.609375 344.26953125 C193.3297031 348.44115879 197.88807251 352.767511 202.375 357.1875 C203.12535522 357.91827759 203.12535522 357.91827759 203.89086914 358.66381836 C207.12278699 361.88809187 209.59509728 365.15329541 212 369 C207.90889181 367.57879173 204.37576568 365.51916857 200.67163086 363.32006836 C177.28706363 349.47674532 152.53373251 338.24704583 127 329 C125.21674316 328.35272949 125.21674316 328.35272949 123.39746094 327.69238281 C98.01899575 318.60007135 72.25072008 312.17923984 45.6875 307.6875 C45.00177917 307.57007446 44.31605835 307.45264893 43.60955811 307.33166504 C29.12870229 304.88438078 14.6336503 303.5678911 0 302 C0 202.34 0 102.68 0 0 Z " fill="#FFFFFF" transform="translate(261,339)"/>
<path d="M0 0 C0 99.66 0 199.32 0 302 C-13.86 303.65 -27.72 305.3 -42 307 C-99.3119359 315.68362665 -159.14327804 335.58755918 -207.76953125 367.76953125 C-208.50558594 368.17558594 -209.24164062 368.58164062 -210 369 C-210.66 368.67 -211.32 368.34 -212 368 C-197.80009322 352.37791458 -183.05226742 338.47715814 -166 326 C-165.08605469 325.32324219 -164.17210937 324.64648438 -163.23046875 323.94921875 C-156.12259158 318.82164566 -148.60407275 314.34366972 -141 310 C-140.29762207 309.5987793 -139.59524414 309.19755859 -138.87158203 308.78417969 C-106.62057449 290.59648943 -65.33760296 276 -28 276 C-28 185.91 -28 95.82 -28 3 C-8 0 -8 0 0 0 Z " fill="#FFFFFF" transform="translate(763,339)"/>
</svg>


